<svg xmlns="http://www.w3.org/2000/svg" viewBox="5 8 54 48">
  <!-- The mark's lines alone, in black, for the macOS menu bar. macOS draws
       it as a template image, recolored to suit a light or dark bar. The
       eye is cut from the back line, as in the mark. -->
  <g fill="#000">
    <rect x="7" y="10.5" width="8" height="4" rx="2"/>
    <rect x="11" y="17" width="8" height="4" rx="2"/>
    <rect x="26" y="17" width="18" height="4" rx="2"/>
    <path fill-rule="evenodd" d="M17 23.5h31a2 2 0 0 1 0 4H17a2 2 0 0 1 0-4zm27.6 0.9a1.1 1.1 0 1 0 0 2.2 1.1 1.1 0 1 0 0-2.2z"/>
    <rect x="13" y="30" width="44" height="4" rx="2"/>
    <rect x="15" y="36.5" width="34" height="4" rx="2"/>
    <rect x="11" y="43" width="8" height="4" rx="2"/>
    <rect x="26" y="43" width="18" height="4" rx="2"/>
    <rect x="7" y="49.5" width="8" height="4" rx="2"/>
  </g>
</svg>
